<?xml version="1.0" encoding="UTF-8"?>
<!DOCTYPE svg PUBLIC "-//W3C//DTD SVG 1.1//EN"
        "http://www.w3.org/Graphics/SVG/1.1/DTD/svg11.dtd">
<svg xmlns="http://www.w3.org/2000/svg" xml:space="preserve"
         width="984px" height="1432px"
         version="1.1"
         style="shape-rendering:geometricPrecision;
            text-rendering:geometricPrecision;
            image-rendering:optimizeQuality;
            fill-rule:evenodd;
            clip-rule:evenodd"
         viewBox="0 0 983 1431" >
    <defs>
        <style type="text/css">
            <![CDATA[
                .stroke-black {{stroke:black;stroke-width:1}}
                .stroke-silver {{stroke:silver;stroke-width:1}}

                .fill-white {{fill:white}}
                .fill-grey {{fill:grey}}
                .fill-black {{fill:black}}
                .no-fill {{fill:none}}

                .team2 {{fill:blue}}
                .team3 {{fill:orange}}

                .field-lightblue {{stroke:#6699FF;stroke-width:5;stroke-opacity:.5}}
                .field-lightgrey {{stroke:gray;stroke-width:5;stroke-opacity:.5}}
                .field-lightorange {{stroke:#FF9933;stroke-width:5;stroke-opacity:.5}}
                .field-border-grey {{stroke:gray;stroke-width:5}}
            ]]>
        </style>
    </defs>
    <g id="Layer_x0020_1">
        <rect class="fill-white" width="{x_size}" height="{y_size}"/>

        <polyline class="no-fill field-lightgrey" points="934,699 934,730 934,761 "/>
        <polyline class="no-fill field-lightgrey" points="49,699 49,730 49,761 "/>
        <path class="no-fill field-lightgrey" d="M523 731c0,-18 -14,-32 -31,-32 -18,0 -32,14 -32,32 0,17 14,31 32,31 17,0 31,-14 31,-31z"/>
        <path class="no-fill field-lightblue" d="M521 719c-4,-12 -16,-20 -29,-20 -14,0 -26,8 -30,20"/>
        <path class="no-fill field-lightorange" d="M521 741c-4,13 -16,21 -29,21 -14,0 -26,-8 -30,-21"/>
        <line class="no-fill field-lightgrey" x1="413" y1="707" x2="413" y2= "754" />
        <line class="no-fill field-lightgrey" x1="570" y1="707" x2="570" y2= "754" />
        <path class="no-fill field-lightblue" d="M386 148l0 29c0,6 4,12 9,15l38 22c4,2 9,2 13,2l13 0c3,0 5,-1 7,-3l6 -5c1,-2 4,-3 6,-3l14 0m-79 502l0 -8c-2,-6 -9,-1 -6,-16 4,-16 38,-51 54,-54 16,-2 9,9 14,13l8 0 9 0m-84 53l-5 5c-1,1 -3,2 -5,2l-23 0c-2,0 -5,0 -7,1l-9 5c-2,1 -5,1 -8,1l-200 0c-3,0 -6,0 -9,-2l-7 -4c-2,-1 -5,-2 -7,-2l-21 0c-4,0 -8,-1 -10,-4l-18 -17m-30 -325l51 52c3,2 2,7 2,10l0 60c0,2 -1,4 -3,6l-10 10c-1,1 -2,3 -2,4l0 92c0,1 1,3 2,4l10 10c2,1 3,3 3,4l0 48c0,3 -3,6 -5,8l-35 34c-4,4 -13,7 -13,3l0 -208 0 -204c0,-14 4,-28 15,-40 26,-30 53,-58 82,-84 11,-10 26,-16 41,-16l65 0c3,0 5,2 5,5l0 70c0,6 1,13 5,17l22 22c3,2 5,4 7,4l5 0c2,0 4,0 6,2l41 42c1,1 2,1 2,3l0 8c0,1 0,3 0,3l22 22c5,6 13,9 21,9l53 0c3,0 6,0 8,-1l22 -24c3,-2 6,-4 10,-4l11 0m-240 -178l134 0c9,0 21,-9 21,-19l0 -17m527 243l-51 52c-3,2 -2,7 -2,10l0 60c0,2 1,4 3,6l10 10c1,1 2,3 2,4l0 92c0,1 -1,3 -2,4l-10 10c-2,1 -3,3 -3,4l0 48c0,3 3,6 5,8l35 34c4,4 13,7 13,3l0 -208 0 -204c0,-14 -4,-28 -15,-40 -26,-30 -53,-58 -82,-84 -11,-10 -26,-16 -41,-16l-65 0c-3,0 -5,2 -5,5l0 70c0,6 -1,13 -5,17l-22 22c-3,2 -5,4 -7,4l-5 0c-2,0 -4,0 -6,2l-41 42c-1,1 -2,1 -2,3l0 8c0,1 0,3 0,3l-22 22c-5,6 -13,9 -21,9l-53 0c-3,0 -6,0 -8,-1l-22 -24c-3,-2 -6,-4 -10,-4l-10 0m239 -178l-134 0c-9,0 -21,-9 -21,-19l0 -17m-84 0l109 0m-109 0l-110 0m-26 223l-39 39c-4,5 -9,9 -9,15l0 17c0,3 0,7 -2,9l-13 13m-31 30l-18 10c-2,1 -4,2 -6,2l-136 0m525 -135l39 39c4,5 9,9 9,15l0 17c0,3 0,7 2,9l13 13m31 30l18 10c2,1 4,2 6,2l136 0m-358 -128l-18 18c-1,1 -2,3 -2,5l0 18c0,2 0,4 -1,5l-5 9c-1,1 -1,4 -1,6l0 179c0,1 1,3 2,4l4 7c1,2 1,3 1,5l0 23c0,2 1,3 2,4l7 6m-52 -289l18 18c1,1 2,3 2,5l0 18c0,2 0,4 1,5l5 9c1,1 1,4 1,6l0 179c0,1 -1,3 -2,4l-4 7c-1,2 -1,3 -1,5l0 23c0,2 -1,3 -2,4l-7 6m104 64l5 5c1,1 3,2 5,2l23 0c2,0 5,0 7,1l9 5c2,1 5,1 8,1l200 0c3,0 6,0 9,-2l7 -4c2,-1 5,-2 7,-2l21 0c4,0 8,-1 10,-4l18 -17m-334 27l0 -8c2,-6 9,-1 6,-16 -4,-16 -38,-51 -54,-54 -16,-2 -9,9 -14,13l-8 0 -8 0m105 -494l0 29c0,6 -4,12 -9,15l-38 22c-4,2 -9,2 -13,2l-13 0c-3,0 -5,-1 -7,-3l-5 -5c-2,-2 -5,-3 -7,-3l-13 0m243 228l-14 25 -21 0 -10 -11 0 -18 0 -1 26 -15 19 20zm-487 0l14 25 21 0 10 -11 0 -18 0 -1 -26 -15 -19 20z"/>
        <path class="no-fill field-lightorange" d="M386 1313l0 -29c0,-6 4,-12 9,-15l38 -22c4,-2 9,-2 13,-2l13 0c3,0 5,1 7,3l6 6c1,1 4,3 6,3l14 0m-79 -503l0 9c-2,5 -9,0 -6,15 4,16 38,51 54,54 16,2 9,-8 14,-12l8 0 9 0m-84 -54l-5 -4c-1,-2 -3,-3 -5,-3l-23 0c-2,0 -5,0 -7,-1l-9 -5c-2,-1 -5,-1 -8,-1l-200 0c-3,0 -6,1 -9,2l-7 4c-2,1 -5,2 -7,2l-21 0c-4,0 -8,1 -10,4l-18 17m-30 325l51 -52c3,-2 2,-6 2,-10l0 -60c0,-2 -1,-4 -3,-5l-10 -11c-1,-1 -2,-2 -2,-4l0 -92c0,-1 1,-3 2,-4l10 -10c2,-1 3,-3 3,-4l0 -48c0,-3 -3,-6 -5,-8l-35 -34c-4,-4 -13,-7 -13,-3l0 208 0 204c0,14 4,28 15,41 26,29 53,57 82,83 11,10 26,16 41,16l65 0c3,0 5,-2 5,-5l0 -70c0,-6 1,-12 5,-17l22 -22c3,-2 5,-4 7,-4l5 0c2,0 4,0 6,-2l41 -42c1,-1 2,-1 2,-3l0 -8c0,-1 0,-2 0,-3l22 -22c5,-6 13,-9 21,-9l53 0c3,0 6,0 8,2l22 23c3,2 6,4 10,4l11 0m-240 178l134 0c9,0 21,10 21,19l0 17m527 -243l-51 -52c-3,-2 -2,-6 -2,-10l0 -60c0,-2 1,-4 3,-5l10 -11c1,-1 2,-2 2,-4l0 -92c0,-1 -1,-3 -2,-4l-10 -10c-2,-1 -3,-3 -3,-4l0 -48c0,-3 3,-6 5,-8l35 -34c4,-4 13,-7 13,-3l0 208 0 204c0,14 -4,28 -15,41 -26,29 -53,57 -82,83 -11,10 -26,16 -41,16l-65 0c-3,0 -5,-2 -5,-5l0 -70c0,-6 -1,-12 -5,-17l-22 -22c-3,-2 -5,-4 -7,-4l-5 0c-2,0 -4,0 -6,-2l-41 -42c-1,-1 -2,-1 -2,-3l0 -8c0,-1 0,-2 0,-3l-22 -22c-5,-6 -13,-9 -21,-9l-53 0c-3,0 -6,0 -8,2l-22 23c-3,2 -6,4 -10,4l-10 0m239 178l-134 0c-9,0 -21,10 -21,19l0 17m-84 0l109 0m-109 0l-110 0m-26 -223l-39 -39c-4,-4 -9,-9 -9,-15l0 -17c0,-3 0,-7 -2,-9l-13 -13m-31 -29l-18 -11c-2,-1 -4,-2 -6,-2l-136 0m525 135l39 -39c4,-4 9,-9 9,-15l0 -17c0,-3 0,-7 2,-9l13 -13m31 -29l18 -11c2,-1 4,-2 6,-2l136 0m-358 128l-18 -18c-1,-1 -2,-3 -2,-5l0 -18c0,-2 0,-3 -1,-5l-5 -9c-1,-1 -1,-4 -1,-6l0 -179c0,-1 1,-3 2,-4l4 -7c1,-1 1,-3 1,-5l0 -23c0,-1 1,-3 2,-4l7 -6m-52 289l18 -18c1,-1 2,-3 2,-5l0 -18c0,-2 0,-3 1,-5l5 -9c1,-1 1,-4 1,-6l0 -179c0,-1 -1,-3 -2,-4l-4 -7c-1,-1 -1,-3 -1,-5l0 -23c0,-1 -1,-3 -2,-4l-7 -6m104 -64l5 -4c1,-2 3,-3 5,-3l23 0c2,0 5,0 7,-1l9 -5c2,-1 5,-1 8,-1l200 0c3,0 6,1 9,2l7 4c2,1 5,2 7,2l21 0c4,0 8,1 10,4l18 17m-334 -27l0 9c2,5 9,0 6,15 -4,16 -38,51 -54,54 -16,2 -9,-8 -14,-12l-8 0 -8 0m105 493l0 -29c0,-6 -4,-12 -9,-15l-38 -22c-4,-2 -9,-2 -13,-2l-13 0c-3,0 -5,1 -7,3l-5 6c-2,1 -5,3 -7,3l-13 0m243 -229l-14 -24 -21 0 -10 10 0 19 0 0 26 15 19 -20zm-487 0l14 -24 21 0 10 10 0 19 0 0 -26 15 -19 -20z"/>
        <path class="no-fill field-border-grey" d="M601 112l222 0c13,0 27,9 36,18l98 98c15,15 24,37 24,58l0 430 0 459c0,21 -9,43 -24,58l-98 98c-9,9 -23,18 -36,18l-222 0 0 110 -219 0 0 -110 -222 0c-13,0 -27,-9 -36,-18l-98 -98c-15,-15 -23,-37 -23,-58l0 -459 0 -430c0,-21 8,-43 23,-58l98 -98c9,-9 23,-18 36,-18l222 0 0 -109 219 0 0 109z"/>

        {car_placement}

        <circle class="fill-grey stroke-black" cx="{ball_pos_x}" cy="{ball_pos_y}" r="{ball_size}"/>
    </g>
</svg>
